<svg id="Grupo_9" data-name="Grupo 9" xmlns="http://www.w3.org/2000/svg" xmlns:xlink="http://www.w3.org/1999/xlink" width="159.6" height="57.593" viewBox="0 0 159.6 57.593">
  <defs>
    <clipPath id="clip-path">
      <rect id="Retângulo_2" data-name="Retângulo 2" width="159.6" height="57.593" fill="none"/>
    </clipPath>
  </defs>
  <g id="Grupo_2" data-name="Grupo 2">
    <g id="Grupo_1" data-name="Grupo 1" clip-path="url(#clip-path)">
      <path id="Caminho_1" data-name="Caminho 1" d="M38.943,87.815a.265.265,0,0,1-.1-.062c-.027-.026-.055-.051-.082-.076a16.75,16.75,0,0,0-6.85-3.1c-.318-.017-.637-.034-.956-.077a.242.242,0,0,1-.094-.033c-2.627-.18-4.953-.9-5.874-5.243l-6.468.539c0,2.22,1.888,5.336,4.3,7.758a.286.286,0,0,1,.059.057v0a.206.206,0,0,1,.1.1,17.473,17.473,0,0,0,2.4,1.987c.267.147.533.291.788.436l.139.077c.517.241,1.05.458,1.589.656a9.77,9.77,0,0,0,2.416.371,11.15,11.15,0,0,1,3.653.67,13.106,13.106,0,0,0-.837-3.083,5.4,5.4,0,0,0-2.476-2.674c-.3-.158-.034-.611.265-.453a5.831,5.831,0,0,1,2.628,2.781,14.324,14.324,0,0,1,.99,3.693,3.234,3.234,0,0,1,1.895,2.843c.022.687.135,8.085.135,8.085h.007c.077,1.648,1.82,2.83,3.631,2.83a3.238,3.238,0,0,0,3.092-3.234h.007V94.58c-.091-2.5-1.955-4.916-4.369-6.765" transform="translate(-11.292 -48.306)" fill="#4744a6"/>
      <path id="Caminho_2" data-name="Caminho 2" d="M42.3,93.586a11.193,11.193,0,0,0-2.064-.67c-.754-.165-1.515-.117-2.275-.22a.247.247,0,0,1-.077-.027l-.1.006a15.783,15.783,0,0,0-7.777,3.251,17.832,17.832,0,0,0,2.7,2.511,8.046,8.046,0,0,0,2.724,1.437,12.044,12.044,0,0,1,3.077-.467,9.78,9.78,0,0,0,2.275-.335A11.079,11.079,0,0,0,40.146,97a5.4,5.4,0,0,0-2.476-2.674c-.3-.158-.034-.611.265-.453a5.832,5.832,0,0,1,2.627,2.781,11.5,11.5,0,0,1,.73,2.283l.063-.018.005,0a5.624,5.624,0,0,0,1.212-.5,16.179,16.179,0,0,0,3.24-2.494A11.86,11.86,0,0,0,42.3,93.586" transform="translate(-18.3 -56.507)" fill="#4744a6"/>
      <path id="Caminho_3" data-name="Caminho 3" d="M56.171,84.244a11.917,11.917,0,0,1,2.032.687,12.273,12.273,0,0,1,3.619,2.415c2.334-2.4,4.135-5.421,4.135-7.589l-6.468-.539c-.672,3.17-2.094,4.409-3.834,4.918.173.031.345.068.516.108" transform="translate(-33.937 -48.306)" fill="#4744a6"/>
      <path id="Caminho_4" data-name="Caminho 4" d="M25.419,104.465a17.926,17.926,0,0,1-2.826-2.63c-2.27,1.817-3.987,4.142-4.074,6.536v8.084h.007a3.238,3.238,0,0,0,3.092,3.234c1.811,0,3.553-1.181,3.631-2.83h.007s.113-7.4.135-8.084a3.361,3.361,0,0,1,2.27-3.025,8.6,8.6,0,0,1-2.242-1.284" transform="translate(-11.292 -62.096)" fill="#4744a6"/>
    </g>
  </g>
  <g id="Grupo_4" data-name="Grupo 4">
    <g id="Grupo_3" data-name="Grupo 3" clip-path="url(#clip-path)">
      <path id="Caminho_5" data-name="Caminho 5" d="M22.068,77.078a3.753,3.753,0,0,1,.259,1.342,1.6,1.6,0,0,1-.055.466A4.35,4.35,0,0,1,17.75,82.13s-4.817.688-5.563-3.015a.611.611,0,0,1,.8-.692,13.805,13.805,0,0,0,4.227.743,3.937,3.937,0,0,0,3.742-2.115.61.61,0,0,1,1.115.028" transform="translate(-7.424 -46.77)" fill="#f2d0a7"/>
      <path id="Caminho_6" data-name="Caminho 6" d="M22.068,77.078a3.753,3.753,0,0,1,.259,1.342,1.6,1.6,0,0,1-.055.466A4.35,4.35,0,0,1,17.75,82.13s-4.817.688-5.563-3.015a.611.611,0,0,1,.8-.692,13.805,13.805,0,0,0,4.227.743,3.937,3.937,0,0,0,3.742-2.115A.61.61,0,0,1,22.068,77.078Z" transform="translate(-7.424 -46.77)" fill="#fff" stroke="#4744a6" stroke-width="1"/>
      <path id="Caminho_7" data-name="Caminho 7" d="M13.783,61.1a3.543,3.543,0,0,1-3.61,3.471,3.474,3.474,0,1,1,0-6.942,3.543,3.543,0,0,1,3.61,3.471" transform="translate(-4.002 -35.143)" fill="#fff"/>
      <ellipse id="Elipse_1" data-name="Elipse 1" cx="3.61" cy="3.471" rx="3.61" ry="3.471" transform="translate(2.561 22.49)" fill="none" stroke="#4744a6" stroke-width="1"/>
      <path id="Caminho_8" data-name="Caminho 8" d="M5.849,44.077s-.278,6.387,6.109,6.109c0,0,5.832.833,6.665-5.554a8.491,8.491,0,0,0-.437-3.585,3.76,3.76,0,0,1-.4-1.619v-.75a5.666,5.666,0,0,1,.539-2.412l1.682-3.575s1.185-3.555-2.357-4.1a2.132,2.132,0,0,0-1.809.579c-1.155,1.128-3.087,3.957-2.959,10.2,0,0-2.317,3.592-2.039,7.2" transform="translate(-3.566 -17.422)" fill="#ead8f2" stroke="#707070" stroke-width="0.5"/>
      <path id="Caminho_9" data-name="Caminho 9" d="M5.849,44.077s-.278,6.387,6.109,6.109c0,0,5.832.833,6.665-5.554a8.491,8.491,0,0,0-.437-3.585,3.76,3.76,0,0,1-.4-1.619v-.75a5.666,5.666,0,0,1,.539-2.412l1.682-3.575s1.185-3.555-2.357-4.1a2.132,2.132,0,0,0-1.809.579c-1.155,1.128-3.087,3.957-2.959,10.2,0,0-2.317,3.592-2.039,7.2" transform="translate(-3.566 -17.422)" fill="#fff" stroke="#4744a6" stroke-width="1"/>
      <path id="Caminho_10" data-name="Caminho 10" d="M6.431,54.526c.272,1.975-.444,3.705-1.6,3.864S2.522,57.077,2.25,55.1s.444-3.705,1.6-3.864,2.311,1.314,2.583,3.288" transform="translate(-1.337 -31.236)" fill="#fff"/>
      <path id="Caminho_11" data-name="Caminho 11" d="M6.431,54.526c.272,1.975-.444,3.705-1.6,3.864S2.522,57.077,2.25,55.1s.444-3.705,1.6-3.864S6.159,52.551,6.431,54.526Z" transform="translate(-1.337 -31.236)" fill="#fff" stroke="#4744a6" stroke-width="1"/>
      <path id="Caminho_12" data-name="Caminho 12" d="M16.887,51.246c.272,1.975-.444,3.705-1.6,3.864s-2.311-1.314-2.583-3.288.444-3.705,1.6-3.864,2.311,1.313,2.583,3.288" transform="translate(-7.712 -29.236)" fill="#fff"/>
      <path id="Caminho_13" data-name="Caminho 13" d="M16.887,51.246c.272,1.975-.444,3.705-1.6,3.864s-2.311-1.314-2.583-3.288.444-3.705,1.6-3.864S16.615,49.271,16.887,51.246Z" transform="translate(-7.712 -29.236)" fill="#fff" stroke="#4744a6" stroke-width="1"/>
      <path id="Caminho_14" data-name="Caminho 14" d="M17.171,57.667,14.52,56.077a1,1,0,0,0-.3-.12c-.561-.124-2.3-.361-2.862,1.275a.651.651,0,0,1-.617.436H9.518a.738.738,0,0,0-.592.3,1.834,1.834,0,0,0,.26,2.65s4.375,2.608,5.486-1.279" transform="translate(-5.168 -34.067)" fill="#f2d0a7" stroke="#707070" stroke-width="0.5"/>
      <path id="Caminho_15" data-name="Caminho 15" d="M17.171,57.667,14.52,56.077a1,1,0,0,0-.3-.12c-.561-.124-2.3-.361-2.862,1.275a.651.651,0,0,1-.617.436H9.518a.738.738,0,0,0-.592.3,1.834,1.834,0,0,0,.26,2.65s4.375,2.608,5.486-1.279" transform="translate(-5.168 -34.067)" fill="#fff" stroke="#4744a6" stroke-width="1"/>
      <path id="Caminho_16" data-name="Caminho 16" d="M61.85,75.006a3.757,3.757,0,0,0-.26,1.342,1.593,1.593,0,0,0,.055.466,4.349,4.349,0,0,0,4.523,3.244s4.817.688,5.563-3.015a.61.61,0,0,0-.8-.691,13.805,13.805,0,0,1-4.227.743,3.938,3.938,0,0,1-3.742-2.116.61.61,0,0,0-1.115.028" transform="translate(-37.556 -45.507)" fill="#fff" stroke="#4744a6" stroke-width="1"/>
      <path id="Caminho_17" data-name="Caminho 17" d="M61.85,75.006a3.757,3.757,0,0,0-.26,1.342,1.593,1.593,0,0,0,.055.466,4.349,4.349,0,0,0,4.523,3.244s4.817.688,5.563-3.015a.61.61,0,0,0-.8-.691,13.805,13.805,0,0,1-4.227.743,3.938,3.938,0,0,1-3.742-2.116A.61.61,0,0,0,61.85,75.006Z" transform="translate(-37.556 -45.507)" fill="#fff" stroke="#4744a6" stroke-width="0.5"/>
      <path id="Caminho_18" data-name="Caminho 18" d="M74.72,59.032a3.613,3.613,0,1,0,3.61-3.471,3.543,3.543,0,0,0-3.61,3.471" transform="translate(-45.562 -33.88)" fill="#fff"/>
      <ellipse id="Elipse_2" data-name="Elipse 2" cx="3.61" cy="3.471" rx="3.61" ry="3.471" transform="translate(29.158 21.681)" fill="none" stroke="#4744a6" stroke-width="1"/>
      <path id="Caminho_19" data-name="Caminho 19" d="M71.507,42.005s.278,6.387-6.109,6.109c0,0-5.832.833-6.665-5.554a8.491,8.491,0,0,1,.437-3.585,3.76,3.76,0,0,0,.4-1.619v-.75a5.666,5.666,0,0,0-.539-2.412L57.344,30.62s-1.185-3.555,2.357-4.1a2.132,2.132,0,0,1,1.809.579c1.155,1.128,3.087,3.957,2.959,10.2,0,0,2.317,3.592,2.039,7.2" transform="translate(-34.851 -16.158)" fill="#ead8f2"/>
      <path id="Caminho_20" data-name="Caminho 20" d="M71.507,42.005s.278,6.387-6.109,6.109c0,0-5.832.833-6.665-5.554a8.491,8.491,0,0,1,.437-3.585,3.76,3.76,0,0,0,.4-1.619v-.75a5.666,5.666,0,0,0-.539-2.412L57.344,30.62s-1.185-3.555,2.357-4.1a2.132,2.132,0,0,1,1.809.579c1.155,1.128,3.087,3.957,2.959,10.2,0,0,2.317,3.592,2.039,7.2" transform="translate(-34.851 -16.158)" fill="#fff" stroke="#4744a6" stroke-width="1"/>
      <path id="Caminho_21" data-name="Caminho 21" d="M86.641,52.455c-.272,1.975.444,3.705,1.6,3.864s2.311-1.314,2.583-3.288-.444-3.705-1.6-3.864-2.311,1.314-2.583,3.288" transform="translate(-52.796 -29.973)" fill="#f2d0a7"/>
      <path id="Caminho_22" data-name="Caminho 22" d="M86.641,52.455c-.272,1.975.444,3.705,1.6,3.864s2.311-1.314,2.583-3.288-.444-3.705-1.6-3.864S86.913,50.48,86.641,52.455Z" transform="translate(-52.796 -29.973)" fill="#fff" stroke="#4744a6" stroke-width="1"/>
      <path id="Caminho_23" data-name="Caminho 23" d="M76.185,49.174c-.272,1.975.444,3.705,1.6,3.864s2.311-1.314,2.583-3.288-.444-3.705-1.6-3.864-2.311,1.314-2.583,3.288" transform="translate(-46.42 -27.973)" fill="#fff"/>
      <path id="Caminho_24" data-name="Caminho 24" d="M76.185,49.174c-.272,1.975.444,3.705,1.6,3.864s2.311-1.314,2.583-3.288-.444-3.705-1.6-3.864S76.457,47.2,76.185,49.174Z" transform="translate(-46.42 -27.973)" fill="none" stroke="#4744a6" stroke-width="1"/>
      <path id="Caminho_25" data-name="Caminho 25" d="M69.027,55.6,71.678,54a1,1,0,0,1,.3-.12c.561-.124,2.3-.361,2.862,1.275a.651.651,0,0,0,.617.436H76.68a.738.738,0,0,1,.592.3,1.834,1.834,0,0,1-.26,2.65s-4.375,2.608-5.486-1.279" transform="translate(-42.091 -32.803)" fill="#f2d0a7" stroke="#707070" stroke-width="0.5"/>
      <path id="Caminho_26" data-name="Caminho 26" d="M69.027,55.6,71.678,54a1,1,0,0,1,.3-.12c.561-.124,2.3-.361,2.862,1.275a.651.651,0,0,0,.617.436H76.68a.738.738,0,0,1,.592.3,1.834,1.834,0,0,1-.26,2.65s-4.375,2.608-5.486-1.279" transform="translate(-42.091 -32.803)" fill="#fff" stroke="#4744a6" stroke-width="1"/>
      <line id="Linha_1" data-name="Linha 1" x1="2.967" y2="6.743" transform="translate(12.21 1.774)" fill="#4744a6"/>
      <line id="Linha_2" data-name="Linha 2" x1="2.967" y2="6.743" transform="translate(12.21 1.774)" fill="none" stroke="#4744a6" stroke-width="1"/>
      <line id="Linha_3" data-name="Linha 3" x2="1.843" y2="7.133" transform="translate(6.678 1.671)" fill="#4744a6"/>
      <line id="Linha_4" data-name="Linha 4" x2="1.843" y2="7.133" transform="translate(6.678 1.671)" fill="none" stroke="#4744a6" stroke-width="1"/>
      <line id="Linha_5" data-name="Linha 5" x2="4.656" y2="5.709" transform="translate(0.151 4.808)" fill="#4744a6"/>
      <line id="Linha_6" data-name="Linha 6" x2="4.656" y2="5.709" transform="translate(0.151 4.808)" fill="none" stroke="#4744a6" stroke-width="1"/>
      <line id="Linha_7" data-name="Linha 7" x1="0.133" y2="7.366" transform="translate(25.439 0.003)" fill="#4744a6"/>
      <line id="Linha_8" data-name="Linha 8" x1="0.133" y2="7.366" transform="translate(25.439 0.003)" fill="none" stroke="#4744a6" stroke-width="1"/>
      <line id="Linha_9" data-name="Linha 9" x1="6.621" y2="3.231" transform="translate(32.263 6.521)" fill="#4744a6"/>
      <line id="Linha_10" data-name="Linha 10" x1="6.621" y2="3.231" transform="translate(32.263 6.521)" fill="none" stroke="#4744a6" stroke-width="1"/>
      <line id="Linha_11" data-name="Linha 11" x1="3.201" y2="6.635" transform="translate(29.262 0.952)" fill="#4744a6"/>
      <line id="Linha_12" data-name="Linha 12" x1="3.201" y2="6.635" transform="translate(29.262 0.952)" fill="none" stroke="#4744a6" stroke-width="1"/>
    </g>
  </g>
  <g id="Grupo_6" data-name="Grupo 6">
    <g id="Grupo_5" data-name="Grupo 5" clip-path="url(#clip-path)">
      <path id="Caminho_27" data-name="Caminho 27" d="M114.455,83.955c.755-5.954,3.959-10.577,10.578-10.577,5.984,0,9.067,4.593,8.341,10.577-.725,5.954-4.14,10.578-10.669,10.578C116.661,94.534,113.7,89.94,114.455,83.955Zm11.485-.03c.212-2.3.272-4.382-1.541-4.382-1.964,0-2.418,2.085-2.629,4.382-.242,2.236-.332,4.443,1.541,4.443C125.275,88.368,125.668,86.162,125.94,83.925Z" transform="translate(-69.721 -44.744)" fill="none" stroke="#4744a6" stroke-width="1"/>
      <path id="Caminho_28" data-name="Caminho 28" d="M178.407,91.076c.574-4.02,1.692-11.667,1.843-12.845.212-1.723-.423-4.08,2.811-4.08H186.1a1.463,1.463,0,0,1,1.279.753l3.439,7.73a.266.266,0,0,0,.5-.1c.172-1.529.526-6.215.572-6.6.091-.846.272-1.783,2.629-1.783h2.63c2.448,0,2.236,2.025,1.994,3.6-.272,1.723-1.753,10.336-1.873,12.875-.091,1.722.514,4.08-2.751,4.08h-2.6c-1.431,0-1.921-1.316-2.089-2.194a10.7,10.7,0,0,0-.527-1.9c-.507-1.294-2.024-2.9-2.7-4.3a.216.216,0,0,0-.41.076c-.173,2.052-.2,3.379-.256,4.235-.091,1.722.514,4.08-2.75,4.08h-2.72C178.015,94.7,178.166,92.648,178.407,91.076Z" transform="translate(-108.711 -45.215)" fill="none" stroke="#4744a6" stroke-width="1"/>
      <path id="Caminho_29" data-name="Caminho 29" d="M247.177,91.076c.574-4.02,1.723-11.667,1.843-12.845.181-1.723-.423-4.08,2.811-4.08h2.72c2.478,0,2.267,2.025,1.995,3.6-.272,1.723-1.454,10.456-1.575,12.995-.091,1.722.245,3.96-3.018,3.96h-2.72C246.785,94.7,246.936,92.648,247.177,91.076Z" transform="translate(-150.645 -45.215)" fill="none" stroke="#4744a6" stroke-width="1"/>
      <path id="Caminho_30" data-name="Caminho 30" d="M287.844,77.959c-.121-1.753-.6-3.808,1.814-3.808h2.448c2.418,0,2.508,1.995,2.539,2.871.151,2.871-1.058,11.418.272,11.552a1.085,1.085,0,0,0,.151,0c1.588-.133,3.053-10.615,3.264-11.552.393-1.723.544-2.871,2.811-2.871h3.6c1.814,0,1.451,2.116.876,3.627-1.571,4.171-4.443,12.784-4.805,13.963-.574,1.723-.574,2.962-3.566,2.962h-5.864c-2.206,0-2.539-1.148-2.659-2.63C288.6,90.773,288.056,80.589,287.844,77.959Z" transform="translate(-175.446 -45.215)" fill="none" stroke="#4744a6" stroke-width="1"/>
      <path id="Caminho_31" data-name="Caminho 31" d="M341.314,91.076c1.451-4.171,4.321-12.785,4.684-13.963.574-1.723.6-2.962,3.6-2.962h5.894c2.206,0,2.509,1.148,2.629,2.629.121,1.3.725,11.485.877,14.115.181,1.753.6,3.808-1.783,3.808H354.7c-2.448,0-2.508-2-2.6-2.871-.03-.242.178-.637-.06-.877-.6-.606-2.734-.514-3.416,0-.352.265-.211.756-.211.877-.363,1.723-.484,2.871-2.75,2.871H342.1C340.316,94.7,340.739,92.587,341.314,91.076Zm10.668-4.957c.839-.749.071-6.888-.121-7.375-.017-.042-.181,0-.181,0s-2.847,5.761-1.844,7.375C350.12,86.575,351.582,86.477,351.982,86.12Z" transform="translate(-207.821 -45.215)" fill="none" stroke="#4744a6" stroke-width="1"/>
      <path id="Caminho_32" data-name="Caminho 32" d="M367.23,62.978a.386.386,0,0,1,.386.386v.751a.386.386,0,0,1-.386.386h-7.658a.386.386,0,0,1-.386-.386v-.751a.386.386,0,0,1,.386-.386Zm0-.39h-7.658a.778.778,0,0,0-.776.776v.751a.778.778,0,0,0,.776.776h7.658a.778.778,0,0,0,.776-.776v-.751a.778.778,0,0,0-.776-.776" transform="translate(-218.784 -38.164)" fill="#4744a6" stroke="#4744a6" stroke-width="0.5"/>
      <path id="Caminho_33" data-name="Caminho 33" d="M393.918,80.351l3.708-3.137-3.9-2.941Z" transform="translate(-240.081 -45.29)" fill="#fff"/>
      <path id="Caminho_34" data-name="Caminho 34" d="M393.918,80.351l3.708-3.137-3.9-2.941Z" transform="translate(-240.081 -45.29)" fill="none" stroke="#4744a6" stroke-linecap="round" stroke-linejoin="round" stroke-width="1"/>
      <path id="Caminho_35" data-name="Caminho 35" d="M398.81,79.612l.024.74,3.708-3.137-3.9-2.941.019.583" transform="translate(-243.079 -45.29)" fill="none" stroke="#4744a6" stroke-linecap="round" stroke-linejoin="round" stroke-width="1"/>
    </g>
  </g>
</svg>
